<svg id="Capa_1" enable-background="new 0 0 512 512" height="512" viewBox="0 0 512 512" width="512" xmlns="http://www.w3.org/2000/svg"><g><g><g><path d="m381.642 504.23h-251.284v-22.14c0-9.32 7.556-16.876 16.876-16.876h217.531c9.32 0 16.876 7.556 16.876 16.876v22.14z" fill="#2b3838"/></g><g><path d="m381.639 482.092v22.14h-24.011v-22.14c0-9.324-7.554-16.878-16.878-16.878h24.011c9.325 0 16.878 7.553 16.878 16.878z" fill="#212d2d"/></g><g><path d="m308.963 397.598h-52.963-52.963l-9.004 67.616h61.967 61.967z" fill="#537983"/></g><g><path d="m317.969 465.214h-21.88l-9.004-67.612h21.88z" fill="#426970"/></g><g><path d="m483.032 42.257h-454.064c-11.855 0-21.465 9.61-21.465 21.464v312.412c0 11.855 9.61 21.465 21.465 21.465h454.064c11.855 0 21.465-9.61 21.465-21.465v-312.412c-.001-11.854-9.611-21.464-21.465-21.464z" fill="#2b3838"/></g><g><path d="m504.497 63.725v312.407c0 11.855-9.615 21.47-21.46 21.47h-18.879c11.855 0 21.46-9.615 21.46-21.47v-312.407c0-11.856-9.605-21.47-21.46-21.47h18.879c11.845 0 21.46 9.614 21.46 21.47z" fill="#212d2d"/></g><g><path d="m504.496 335.491h-496.992v40.642c0 11.855 9.61 21.465 21.465 21.465h454.064c11.855 0 21.465-9.61 21.465-21.465v-40.642z" fill="#7ca1b1"/></g><g><path d="m504.497 335.493v40.639c0 11.855-9.615 21.47-21.46 21.47h-18.879c11.855 0 21.46-9.615 21.46-21.47v-40.639z" fill="#678d98"/></g><g><path d="m42.932 335.493v-252.36c0-5.258 4.262-9.52 9.52-9.52h407.097c5.258 0 9.52 4.262 9.52 9.52v252.36z" fill="#d4f2f6"/></g><g><path d="m469.07 83.134v252.359h-21.48v-252.359c0-5.262-4.262-9.524-9.525-9.524h21.48c5.263 0 9.525 4.262 9.525 9.524z" fill="#a6e7f0"/></g></g><g><g><path d="m96.998 16.723v166.416c0 4.944 4.008 8.953 8.953 8.953h300.1c4.945 0 8.953-4.008 8.953-8.953v-166.416c0-4.944-4.008-8.953-8.953-8.953h-300.1c-4.945 0-8.953 4.008-8.953 8.953z" fill="#fee8c7"/></g><g><path d="m415.001 16.725v166.418c0 4.942-4.002 8.944-8.954 8.944h-22.481c4.942 0 8.954-4.002 8.954-8.944v-166.418c0-4.942-4.012-8.954-8.954-8.954h22.481c4.952 0 8.954 4.012 8.954 8.954z" fill="#fedba6"/></g><g><path d="m111.382 192.092 139.296-126.326c3.291-2.985 7.352-2.985 10.644 0l139.297 126.326z" fill="#fec165"/></g><g><path d="m400.614 192.085h-34.336l-127.45-115.586 11.846-10.738c3.292-2.974 7.353-2.974 10.645 0z" fill="#fdb441"/></g><g><path d="m256 7.77h-144.618l137.556 122.664c4.025 3.589 10.101 3.589 14.126 0l137.555-122.664z" fill="#fea613"/></g><g><path d="m400.614 7.771-137.554 122.667c-4.022 3.582-10.095 3.582-14.127 0l-10.105-9.014 127.45-113.653z" fill="#fb8801"/></g><g><path d="m415.003 223.275h-263.052c-4.144 0-7.504 3.359-7.504 7.503 0 4.145 3.359 7.504 7.504 7.504h263.051c4.144 0 7.504-3.359 7.504-7.504 0-4.144-3.359-7.503-7.503-7.503z"/><path d="m415.003 256.203h-318.005c-4.144 0-7.504 3.359-7.504 7.504s3.359 7.503 7.504 7.503h318.005c4.144 0 7.504-3.359 7.504-7.503s-3.36-7.504-7.504-7.504z"/><path d="m302.527 289.131h-205.529c-4.144 0-7.504 3.359-7.504 7.503s3.359 7.504 7.504 7.504h205.529c4.144 0 7.504-3.359 7.504-7.504s-3.36-7.503-7.504-7.503z"/><path d="m271.757 374.048c4.144 0 7.504-3.359 7.504-7.503s-3.359-7.504-7.504-7.504h-31.513c-4.144 0-7.504 3.359-7.504 7.504s3.359 7.503 7.504 7.503z"/><path d="m483.032 34.753h-60.526v-18.031c0-9.073-7.382-16.456-16.456-16.456h-300.1c-9.074 0-16.456 7.382-16.456 16.456v18.031h-60.526c-15.973 0-28.968 12.995-28.968 28.968v312.411c0 15.973 12.995 28.969 28.968 28.969h17.683c4.144 0 7.504-3.359 7.504-7.504 0-4.144-3.359-7.503-7.504-7.503h-17.683c-7.698 0-13.961-6.263-13.961-13.962v-33.137h481.986v33.137c0 7.699-6.263 13.962-13.961 13.962h-401.614c-4.144 0-7.504 3.359-7.504 7.503 0 4.145 3.359 7.504 7.504 7.504h113.05l-7.005 52.609h-40.228c-13.443 0-24.38 10.937-24.38 24.381v22.139c0 4.145 3.359 7.503 7.504 7.503h251.284c4.144 0 7.504-3.359 7.504-7.503v-22.139c0-13.444-10.937-24.381-24.38-24.381h-40.228l-7.005-52.609h165.499c15.973 0 28.968-12.995 28.968-28.969v-312.411c-.001-15.973-12.996-28.968-28.969-28.968zm-273.425 370.348h92.786l7.005 52.609h-106.796zm155.159 67.616c5.168 0 9.373 4.205 9.373 9.374v14.636h-236.277v-14.636c0-5.168 4.205-9.374 9.373-9.374zm41.284-457.444c.799 0 1.449.65 1.449 1.449v166.416c0 .799-.65 1.45-1.449 1.45h-2.536l-94.153-85.386 94.117-83.928h2.572zm-24.875 169.315h-250.35l83.078-75.343 30.041 26.789c3.437 3.065 7.746 4.597 12.056 4.597s8.62-1.533 12.057-4.597l30.04-26.788zm-276.674-167.866c0-.799.65-1.449 1.449-1.449h2.572l67.185 59.912c3.094 2.759 7.837 2.487 10.594-.607 2.758-3.092 2.487-7.835-.606-10.594l-54.625-48.711h249.861l-122.861 109.561c-1.18 1.051-2.959 1.051-4.138 0l-42.356-37.772c-3.092-2.757-7.836-2.487-10.594.607-2.758 3.092-2.487 7.836.606 10.594l1.052.938-94.154 85.387h-2.536c-.799 0-1.449-.651-1.449-1.45zm-69.073 66.411v244.855h-20.421v-264.267c0-7.698 6.263-13.961 13.961-13.961h60.526v16.35h-37.043c-9.386 0-17.023 7.636-17.023 17.023zm426.137 244.855h-411.13v-244.855c0-1.112.904-2.016 2.016-2.016h37.043v102.022c0 9.074 7.382 16.457 16.456 16.457h300.1c9.074 0 16.456-7.382 16.456-16.457v-102.022h37.042c1.112 0 2.016.904 2.016 2.016v244.855zm35.428 0h-20.421v-244.855c0-9.386-7.636-17.023-17.023-17.023h-37.042v-16.35h60.526c7.698 0 13.961 6.263 13.961 13.961v264.267z"/></g></g></g></svg>